<svg xmlns="http://www.w3.org/2000/svg" viewBox="0 0 24 24" fill="#000">
  <path d="M14.23 12.004a2.236 2.236 0 0 1-2.235 2.236 2.236 2.236 0 0 1-2.236-2.236 2.236 2.236 0 0 1 2.235-2.236 2.236 2.236 0 0 1 2.236 2.236zm2.648-10.69c-1.346 0-3.107.96-4.888 2.622-1.78-1.653-3.542-2.602-4.887-2.602-.31 0-.592.068-.838.182a1.62 1.62 0 0 0-.834 1.097c-.202.934.126 2.223.867 3.64a18.45 18.45 0 0 0-2.67 4.252c-.61 1.447-.923 2.77-.913 3.738a1.62 1.62 0 0 0 .7 1.27c.27.174.578.268.896.268 1.346 0 3.107-.96 4.888-2.624 1.78 1.654 3.542 2.603 4.887 2.603.31 0 .592-.068.838-.182a1.62 1.62 0 0 0 .834-1.097c.202-.934-.126-2.223-.867-3.64a18.45 18.45 0 0 0 2.67-4.252c.61-1.447.923-2.77.913-3.738a1.62 1.62 0 0 0-.7-1.27 1.688 1.688 0 0 0-.896-.268zM12 16.878c-2.69 0-4.874-2.184-4.874-4.878S9.31 7.122 12 7.122s4.874 2.184 4.874 4.878-2.184 4.878-4.874 4.878z"/>
</svg>
